<svg width="281" height="49" viewBox="0 0 281 49" fill="none" xmlns="http://www.w3.org/2000/svg">
<path d="M1.112 31.24H1.496C2.552 31.816 3.816 32.312 5.288 32.728C6.76 33.144 8.504 33.352 10.52 33.352C12.184 33.352 13.688 33.176 15.032 32.824C16.408 32.44 17.496 31.864 18.296 31.096C19.128 30.296 19.544 29.256 19.544 27.976C19.544 26.472 19.128 25.464 18.296 24.952C17.464 24.408 16.344 23.944 14.936 23.56L11.48 22.6C10.168 22.216 8.92 21.704 7.736 21.064C6.584 20.424 5.656 19.528 4.952 18.376C4.248 17.224 3.896 15.688 3.896 13.768C3.896 11.112 4.552 8.904 5.864 7.144C7.176 5.384 8.984 4.072 11.288 3.208C13.592 2.312 16.216 1.864 19.16 1.864C20.376 1.864 21.512 1.928 22.568 2.056C23.656 2.152 24.616 2.312 25.448 2.536C26.312 2.728 27 2.952 27.512 3.208L26.648 7.624H26.264C25.592 7.24 24.664 6.888 23.48 6.568C22.328 6.248 20.888 6.088 19.16 6.088C17.24 6.088 15.48 6.328 13.88 6.808C12.28 7.256 11 8.024 10.04 9.112C9.08 10.168 8.6 11.624 8.6 13.48C8.6 15.048 9.016 16.184 9.848 16.888C10.712 17.592 11.896 18.152 13.4 18.568L16.856 19.528C18.2 19.88 19.432 20.392 20.552 21.064C21.672 21.704 22.568 22.552 23.24 23.608C23.912 24.664 24.248 25.992 24.248 27.592C24.248 29.256 23.928 30.728 23.288 32.008C22.648 33.256 21.72 34.296 20.504 35.128C19.32 35.928 17.864 36.536 16.136 36.952C14.44 37.368 12.504 37.576 10.328 37.576C8.312 37.576 6.456 37.4 4.76 37.048C3.064 36.696 1.56 36.232 0.248 35.656L1.112 31.24ZM33.5593 37H29.1433L34.6153 8.776C34.7433 8.136 34.9033 7.304 35.0953 6.28C35.2873 5.256 35.4473 4.248 35.5753 3.256C35.7353 2.264 35.7993 1.48 35.7673 0.903998L35.9593 0.519998H40.6633L33.5593 37ZM37.9753 11.464C38.8393 11.176 39.8473 10.92 40.9993 10.696C42.1833 10.44 43.3513 10.312 44.5033 10.312C46.2953 10.312 47.9113 10.584 49.3513 11.128C50.8233 11.64 51.9753 12.504 52.8073 13.72C53.6713 14.904 54.1033 16.52 54.1033 18.568C54.1033 19.048 54.0713 19.592 54.0073 20.2C53.9433 20.776 53.8473 21.384 53.7193 22.024L50.8393 37H46.4233L49.3033 22.024C49.3993 21.48 49.4633 20.984 49.4953 20.536C49.5593 20.056 49.5913 19.624 49.5913 19.24C49.5913 17.256 49.0313 15.912 47.9113 15.208C46.8233 14.504 45.3673 14.152 43.5433 14.152C42.3913 14.152 41.2393 14.296 40.0873 14.584C38.9353 14.872 37.8473 15.24 36.8233 15.688L37.9753 11.464ZM69.8304 37.576C66.5664 37.576 64.0544 36.936 62.2944 35.656C60.5344 34.344 59.6544 32.488 59.6544 30.088C59.6544 27.976 60.1984 26.264 61.2864 24.952C62.4064 23.608 63.8784 22.632 65.7024 22.024C67.5584 21.384 69.5744 21.064 71.7504 21.064C73.4784 21.064 74.8864 21.224 75.9744 21.544C77.0944 21.832 77.8624 22.056 78.2784 22.216V26.056C77.4144 25.672 76.5024 25.352 75.5424 25.096C74.5824 24.84 73.3824 24.712 71.9424 24.712C69.4464 24.712 67.5104 25.128 66.1344 25.96C64.7584 26.76 64.0704 28.072 64.0704 29.896C64.0704 31.336 64.6304 32.376 65.7504 33.016C66.8704 33.624 68.2944 33.928 70.0224 33.928C71.4624 33.928 72.7424 33.832 73.8624 33.64C74.9824 33.416 76.0704 33.064 77.1264 32.584L76.2624 34.024C76.2304 33.544 76.2144 33.08 76.2144 32.632C76.2144 32.184 76.2464 31.736 76.3104 31.288C76.3744 30.84 76.4544 30.376 76.5504 29.896L78.2304 21.256C78.7424 18.696 78.5184 16.872 77.5584 15.784C76.5984 14.696 74.7264 14.152 71.9424 14.152C70.5024 14.152 69.1744 14.312 67.9584 14.632C66.7424 14.952 65.7024 15.304 64.8384 15.688H64.2624L65.0304 11.656C66.2784 11.208 67.4784 10.872 68.6304 10.648C69.8144 10.424 71.1744 10.312 72.7104 10.312C75.3984 10.312 77.5424 10.744 79.1424 11.608C80.7424 12.44 81.8144 13.688 82.3584 15.352C82.9344 16.984 82.9824 19.016 82.5024 21.448L81.3504 27.4C81.0944 28.808 80.8704 30.168 80.6784 31.48C80.4864 32.76 80.3904 34.024 80.3904 35.272L80.1984 35.656C78.5664 36.232 76.8864 36.696 75.1584 37.048C73.4304 37.4 71.6544 37.576 69.8304 37.576ZM92.7669 32.584C93.0869 32.776 93.4869 32.968 93.9669 33.16C94.4469 33.32 95.0389 33.464 95.7429 33.592C96.4469 33.688 97.3109 33.736 98.3349 33.736C100.511 33.736 102.415 33.272 104.047 32.344C105.711 31.384 106.991 30.008 107.887 28.216C108.815 26.392 109.279 24.2 109.279 21.64C109.279 19.048 108.623 17.16 107.311 15.976C106.031 14.76 104.191 14.152 101.791 14.152C100.639 14.152 99.5669 14.264 98.5749 14.488C97.5829 14.68 96.6709 14.952 95.8389 15.304L96.6069 13.96C96.6389 14.568 96.6389 15.224 96.6069 15.928C96.5749 16.6 96.4789 17.288 96.3189 17.992L90.4629 48.136H86.0469L91.9029 17.992C92.0949 17.032 92.2549 16.088 92.3829 15.16C92.5429 14.2 92.6389 13.288 92.6709 12.424L92.8629 12.04C94.2709 11.56 95.8069 11.16 97.4709 10.84C99.1349 10.488 100.831 10.312 102.559 10.312C104.735 10.312 106.671 10.744 108.367 11.608C110.063 12.44 111.391 13.704 112.351 15.4C113.311 17.064 113.791 19.144 113.791 21.64C113.791 24.04 113.407 26.216 112.639 28.168C111.903 30.12 110.831 31.8 109.423 33.208C108.015 34.616 106.351 35.704 104.431 36.472C102.543 37.208 100.447 37.576 98.1429 37.576C96.8949 37.576 95.6949 37.448 94.5429 37.192C93.4229 36.968 92.5749 36.712 91.9989 36.424L92.7669 32.584ZM130.359 37.384C127.671 37.384 125.415 36.952 123.591 36.088C121.767 35.224 120.391 33.976 119.463 32.344C118.535 30.712 118.071 28.744 118.071 26.44C118.071 24.36 118.391 22.36 119.031 20.44C119.703 18.52 120.647 16.808 121.863 15.304C123.111 13.768 124.631 12.552 126.423 11.656C128.215 10.76 130.231 10.312 132.471 10.312C135.831 10.312 138.359 11.176 140.055 12.904C141.783 14.632 142.647 16.84 142.647 19.528C142.647 20.584 142.551 21.624 142.359 22.648C142.167 23.672 141.943 24.616 141.687 25.48H121.143V21.832H137.847C137.943 21.448 138.007 21.064 138.039 20.68C138.103 20.264 138.135 19.944 138.135 19.72C138.135 17.992 137.687 16.632 136.791 15.64C135.895 14.648 134.391 14.152 132.279 14.152C130.743 14.152 129.367 14.488 128.151 15.16C126.967 15.832 125.959 16.712 125.127 17.8C124.295 18.888 123.655 20.104 123.207 21.448C122.791 22.792 122.583 24.136 122.583 25.48V26.44C122.583 28.84 123.319 30.632 124.791 31.816C126.263 32.968 128.247 33.544 130.743 33.544C132.375 33.544 133.847 33.384 135.159 33.064C136.471 32.744 137.495 32.392 138.231 32.008H138.615L137.847 36.04C137.079 36.424 136.023 36.744 134.679 37C133.335 37.256 131.895 37.384 130.359 37.384ZM146.518 37L153.238 2.44H157.846L151.126 37H146.518ZM151.702 23.56L152.47 19.528H168.502L167.734 23.56H151.702ZM155.542 6.472L156.31 2.44H174.454L173.686 6.472H155.542ZM173.507 48.136V47.56L180.899 35.656L195.203 10.888H199.619V11.464L177.923 48.136H173.507ZM180.323 38.344L175.043 11.464V10.888H179.651L183.395 32.008L180.323 38.344ZM199.721 37L206.441 2.44H211.049L205.097 32.968H219.977L219.209 37H199.721ZM233.38 6.28C232.612 6.28 232.004 6.072 231.556 5.656C231.108 5.208 230.884 4.648 230.884 3.976C230.884 2.92 231.236 2.088 231.94 1.48C232.676 0.839998 233.476 0.519998 234.34 0.519998C235.108 0.519998 235.716 0.743998 236.164 1.192C236.612 1.608 236.836 2.152 236.836 2.824C236.836 3.88 236.468 4.728 235.732 5.368C235.028 5.976 234.244 6.28 233.38 6.28ZM225.268 37L228.724 19.144C228.852 18.504 229.012 17.672 229.204 16.648C229.396 15.624 229.556 14.616 229.684 13.624C229.844 12.632 229.908 11.848 229.876 11.272L230.068 10.888H234.772L229.684 37H225.268ZM239.293 37L244.381 10.888C244.861 8.456 245.581 6.488 246.541 4.984C247.533 3.448 248.765 2.328 250.237 1.624C251.709 0.887998 253.437 0.519998 255.421 0.519998C256.189 0.519998 256.941 0.567998 257.677 0.663999C258.445 0.759999 259.037 0.903999 259.453 1.096L258.685 4.936H258.301C257.821 4.744 257.341 4.6 256.861 4.504C256.413 4.408 255.805 4.36 255.037 4.36C253.117 4.36 251.677 4.92 250.717 6.04C249.789 7.16 249.149 8.776 248.797 10.888L243.709 37H239.293ZM239.677 14.728L240.445 10.888H256.189L255.421 14.728H239.677ZM267.937 37.384C265.249 37.384 262.993 36.952 261.169 36.088C259.345 35.224 257.969 33.976 257.041 32.344C256.113 30.712 255.649 28.744 255.649 26.44C255.649 24.36 255.969 22.36 256.609 20.44C257.281 18.52 258.225 16.808 259.441 15.304C260.689 13.768 262.209 12.552 264.001 11.656C265.793 10.76 267.809 10.312 270.049 10.312C273.409 10.312 275.937 11.176 277.633 12.904C279.361 14.632 280.225 16.84 280.225 19.528C280.225 20.584 280.129 21.624 279.937 22.648C279.745 23.672 279.521 24.616 279.265 25.48H258.721V21.832H275.425C275.521 21.448 275.585 21.064 275.617 20.68C275.681 20.264 275.713 19.944 275.713 19.72C275.713 17.992 275.265 16.632 274.369 15.64C273.473 14.648 271.969 14.152 269.857 14.152C268.321 14.152 266.945 14.488 265.729 15.16C264.545 15.832 263.537 16.712 262.705 17.8C261.873 18.888 261.233 20.104 260.785 21.448C260.369 22.792 260.161 24.136 260.161 25.48V26.44C260.161 28.84 260.897 30.632 262.369 31.816C263.841 32.968 265.825 33.544 268.321 33.544C269.953 33.544 271.425 33.384 272.737 33.064C274.049 32.744 275.073 32.392 275.809 32.008H276.193L275.425 36.04C274.657 36.424 273.601 36.744 272.257 37C270.913 37.256 269.473 37.384 267.937 37.384Z" fill="#1E2E58"/>
</svg>
